# xmcd CD database file
#
# Track frame offsets:
#	150
#	15807
#	28220
#	41122
#	56224
#	70860
#	88129
#	103398
#	123256
#	147960
#	168970
#	186268
#	200313
#
# Disc length: 2911 seconds
#
# Revision: 1
# Processed by: cddbd v1.5.2PL0 Copyright (c) Steve Scherf et al.
# Submitted via: CDex 2.19
#
DISCID=b80b5d0d
DTITLE=Sons of Anarchy - Compilation - Songs of Anarchy: Volume 3
DYEAR=2013
DGENRE=Compilation
TTITLE0=Sitting on Top Of The World [from Sons of Anarchy]
TTITLE1=Running Blues [from Sons of Anarchy]
TTITLE2=Come Healing
TTITLE3=(Sittin' On) The Dock Of The Bay [from Sons of Anarchy]
TTITLE4=Love is My Religion [from Sons of Anarchy]
TTITLE5=As Tears Go By [from Sons of Anarchy]
TTITLE6=I See Through You (Free Your Mind) [from Sons of Anarchy]
TTITLE7=Day Is Gone [from Sons of Anarchy]
TTITLE8=Everyday People [from Sons of Anarchy]
TTITLE9=For A Dancer [from Sons of Anarchy]
TTITLE10=Slip Kid [from Sons of Anarchy]
TTITLE11=Lullaby For a Soldier (Arms of the Angels) [from Sons of Anarchy]
TTITLE12=Crash This Train
EXTD=YEAR: 2013
EXTT0=
EXTT1=
EXTT2=
EXTT3=
EXTT4=
EXTT5=
EXTT6=
EXTT7=
EXTT8=
EXTT9=
EXTT10=
EXTT11=
EXTT12=
PLAYORDER=
